<svg width="514" height="96" viewBox="0 0 514 96" fill="none" xmlns="http://www.w3.org/2000/svg">
<path fill-rule="evenodd" clip-rule="evenodd" d="M217.17 15H206.6V78.04H217.17V15ZM100 16.42H110.91V41.9H138.88V16.42H149.79V78.04H138.88V52.22H110.91V78.04H100V16.42ZM156.55 55.18C156.55 40.31 164.97 31.03 178.46 31.03C191.18 31.03 198.96 39.24 198.96 52.26V58.53H167.12C167.59 65.23 171.59 69.83 178.68 69.83C184.39 69.83 187.36 66.91 189.08 63.69L198.32 66.96C195.01 73.79 188.52 78.73 178.3 78.73C164.21 78.73 156.56 69.32 156.56 55.18H156.55ZM188.3 50.66V50.28C188.3 43.45 184.18 39.92 178.29 39.92C171.89 39.92 167.98 44.17 167.2 50.66H188.3ZM227.39 31.89H237.87V38.89C240.53 33.78 244.87 31.03 251.79 31.03C264.81 31.03 271.56 40.87 271.56 54.53C271.56 68.19 264.81 78.03 251.75 78.03C245 78.03 240.58 75.32 237.96 70.3V94.84H227.39V31.89ZM249.48 69.01C256.74 69.01 261 63.55 261 54.53C261 45.51 256.75 40.05 249.48 40.05C242.21 40.05 237.96 45.51 237.96 54.53C237.96 63.55 242.21 69.01 249.48 69.01ZM299.78 57.8L288.91 59.69H288.9C290.32 71.55 301.11 79.46 314.64 79.46C328.17 79.46 336.98 71.6 336.98 59.61C336.98 46.33 326.15 44.31 314.94 42.29C307.12 40.87 300.59 39.5 300.59 32.88C300.59 27.38 305.1 24.59 311.89 24.59C320.23 24.59 324.39 28.71 325.21 35.07L336.04 33.22C334.45 22.26 325.86 15 312.41 15C298.96 15 289.55 21.79 289.55 33.99C289.55 47.48 301.02 49.71 310.95 51.56C318.9 53.07 326.03 54.44 326.03 61.23C326.03 66.6 321.61 69.87 314.69 69.87C306.57 69.87 300.77 65.45 299.78 57.8ZM342.05 54.915C342.052 40.048 350.172 31.03 363.75 31.03C375.31 31.03 382.1 37.56 383.82 46.76L373.59 48.56C372.52 43.15 369.12 40.14 363.75 40.14C356.66 40.14 352.62 45.25 352.62 55.01C352.62 64.77 356.44 69.66 363.58 69.66C369.04 69.66 372.52 66.61 373.59 61.15L383.82 62.95C382.1 72.15 375.14 78.76 363.58 78.76C349.922 78.76 342.052 69.5621 342.05 54.915ZM409.45 31.03C396.04 31.03 387.58 40.27 387.58 54.88C387.58 69.49 396 78.73 409.45 78.73C422.9 78.73 431.36 69.49 431.36 54.88C431.36 40.27 422.86 31.03 409.45 31.03ZM420.79 54.88C420.79 64.54 416.63 69.7 409.45 69.7C402.32 69.7 398.15 64.5 398.15 54.88C398.15 45.26 402.28 40.06 409.45 40.06C416.62 40.06 420.79 45.22 420.79 54.88ZM437.7 62.87V31.89H448.27V59.43C448.27 65.45 450.81 69.27 456.31 69.27C462.67 69.27 466.58 64.33 466.58 57.88V31.88H477.15V78.03H466.67V70.73C464.26 75.24 460.14 78.72 452.88 78.72C443.17 78.72 437.71 72.45 437.71 62.86L437.7 62.87ZM491.33 41.3V65.92C491.33 75.84 496.83 78.72 504.95 78.72C507.92 78.72 510.97 78.34 513.76 77.65L513.29 68.97C511.44 69.27 509.73 69.44 508.35 69.44C501.9 69.44 501.9 65.45 501.9 63.17V41.3H512.94V31.89H501.9V18.27L491.33 21.23V31.89H482.91V41.3H491.33Z" fill="#131B24"/>
<path fill-rule="evenodd" clip-rule="evenodd" d="M38.2305 25.6588C45.2472 18.5733 45.2472 7.08548 38.2305 0L5.76252 32.7862C-1.25417 39.8717 -1.25417 51.3595 5.76252 58.445L38.2305 25.6588ZM5.83348 95.7432C-1.18321 88.6577 -1.18321 77.1698 5.83349 70.0844L75.2375 6.5136e-06C82.2542 7.08549 82.2542 18.5733 75.2375 25.6588L5.83348 95.7432ZM42.7664 96C35.7497 88.9145 35.7497 77.4267 42.7664 70.3412L75.2344 37.555C82.2511 44.6405 82.2511 56.1283 75.2344 63.2138L42.7664 96Z" fill="#304DDB"/>
</svg>
