<svg xmlns="http://www.w3.org/2000/svg" fill="none" viewBox="0 0 95 36"><path fill="#0A66C2" d="M10.557 22.035v3.416H0V8.55h3.703v13.485h6.854Zm1.636-8.046h3.558V25.45h-3.558V13.99Zm1.78-5.694a2.065 2.065 0 0 1 2.063 2.064 2.063 2.063 0 1 1-2.064-2.064Zm24.241 5.693h4.357L37.9 19.287l4.574 6.163h-4.468l-3.776-5.662h-.046v5.662h-3.557V8.548h3.557V18.65l4.03-4.662Zm-20.494.006h3.415v1.57h.047c.475-.901 1.637-1.85 3.368-1.85 3.607 0 4.271 2.372 4.271 5.456v6.28h-3.558v-5.572c0-1.33-.025-3.036-1.851-3.036-1.85 0-2.134 1.447-2.134 2.94v5.665h-3.559V13.994Zm32.346 4.394c.024-1.186-.902-2.182-2.184-2.182-1.565 0-2.42 1.067-2.513 2.182h4.697Zm3.012 5.075c-1.138 1.448-3.011 2.279-4.867 2.279-3.558 0-6.405-2.374-6.405-6.05 0-3.677 2.847-6.046 6.405-6.046 3.324 0 5.41 2.372 5.41 6.045v1.115h-8.256c.282 1.352 1.304 2.23 2.68 2.23 1.163 0 1.945-.59 2.539-1.4l2.494 1.828Zm7.957-6.7c-1.778 0-2.845 1.186-2.845 2.917 0 1.733 1.068 2.918 2.845 2.918 1.78 0 2.848-1.185 2.848-2.918 0-1.73-1.067-2.918-2.848-2.918Zm6.123 8.682h-3.274v-1.52h-.047c-.547.831-1.922 1.804-3.535 1.804-3.418 0-5.67-2.466-5.67-5.954 0-3.203 1.992-6.145 5.265-6.145 1.472 0 2.848.403 3.65 1.518h.047v-6.6h3.56l.004 16.897ZM92.942 5H72.488c-.981 0-1.771.775-1.771 1.73v20.539c0 .956.794 1.731 1.771 1.731h20.454c.978 0 1.776-.776 1.776-1.731V6.729c0-.954-.797-1.729-1.776-1.729Z"/><path fill="#fff" d="M74.275 13.998h3.56v11.454h-3.56V13.998Zm1.781-5.694a2.065 2.065 0 0 1 0 4.128 2.065 2.065 0 0 1 0-4.128Zm4.012 5.694h3.414v1.56h.047c.471-.9 1.637-1.85 3.368-1.85 3.605 0 4.27 2.373 4.27 5.457v6.282h-3.556v-5.573c0-1.329-.024-3.037-1.85-3.037-1.853 0-2.136 1.446-2.136 2.94v5.666h-3.557V13.99v.009Z"/></svg>