<!DOCTYPE svg PUBLIC "-//W3C//DTD SVG 1.1//EN" "http://www.w3.org/Graphics/SVG/1.1/DTD/svg11.dtd">
<!-- Uploaded to: SVG Repo, www.svgrepo.com, Transformed by: SVG Repo Mixer Tools -->
<svg fill="#000000" width="800px" height="800px" viewBox="0 0 24 24" id="bug" data-name="Line Color" xmlns="http://www.w3.org/2000/svg" class="icon line-color">
<g id="SVGRepo_bgCarrier" stroke-width="0"/>
<g id="SVGRepo_tracerCarrier" stroke-linecap="round" stroke-linejoin="round"/>
<g id="SVGRepo_iconCarrier">
<path id="secondary" d="M16,18h0A5,5,0,0,1,18.72,21V21" style="fill: none; stroke: #4C7FE6; stroke-linecap: round; stroke-linejoin: round; stroke-width: 2;"/>
<path id="secondary-2" data-name="secondary" d="M8,18H8A5,5,0,0,0,5.28,21V21" style="fill: none; stroke: #4C7FE6; stroke-linecap: round; stroke-linejoin: round; stroke-width: 2;"/>
<path id="secondary-3" data-name="secondary" d="M17.22,3h0A2.82,2.82,0,0,1,15.4,5.05l-.89.31" style="fill: none; stroke: #4C7FE6; stroke-linecap: round; stroke-linejoin: round; stroke-width: 2;"/>
<path id="secondary-4" data-name="secondary" d="M9.49,5.36,8.6,5.05A2.82,2.82,0,0,1,6.78,3h0" style="fill: none; stroke: #4C7FE6; stroke-linecap: round; stroke-linejoin: round; stroke-width: 2;"/>
<path id="secondary-5" data-name="secondary" d="M21,7.1,20.47,8A5.42,5.42,0,0,1,17,10.47h0" style="fill: none; stroke: #4C7FE6; stroke-linecap: round; stroke-linejoin: round; stroke-width: 2;"/>
<path id="secondary-6" data-name="secondary" d="M17,13.5h0a5.06,5.06,0,0,1,3.65,2.31l.35.55" style="fill: none; stroke: #4C7FE6; stroke-linecap: round; stroke-linejoin: round; stroke-width: 2;"/>
<path id="secondary-7" data-name="secondary" d="M7,10.47H7A5.42,5.42,0,0,1,3.53,8L3,7.1" style="fill: none; stroke: #4C7FE6; stroke-linecap: round; stroke-linejoin: round; stroke-width: 2;"/>
<path id="secondary-8" data-name="secondary" d="M3,16.36l.35-.55A5.06,5.06,0,0,1,7,13.5H7" style="fill: none; stroke: #4C7FE6; stroke-linecap: round; stroke-linejoin: round; stroke-width: 2;"/>
<path id="primary" d="M17,15V10a1,1,0,0,0-1-1H8a1,1,0,0,0-1,1v5a5,5,0,0,0,5,5h0A5,5,0,0,0,17,15ZM15,9H9V7a3,3,0,0,1,3-3h0a3,3,0,0,1,3,3Z" style="fill: none; stroke: #000000; stroke-linecap: round; stroke-linejoin: round; stroke-width: 2;"/>
</g>
</svg>